# xmcd
#
# Track frame offsets: 
#        150
#        6511
#        15865
#        24913
#        35492
#        49438
#        62534
#        73521
#        75630
#        83079
#        87263
#        103624
#        113829
#        116687
#        120837
#        126280
#        135566
#        154308
#        168202
#        177286
#        191929
#        205739
#        215480
#        228335
#        245401
#        260538
#
# Disc length: 3592 seconds
#
# Revision: 0
# Processed by: cddbd v1.5.2PL0 Copyright (c) Steve Scherf et al.
# Submitted via: ExactAudioCopy v0.99pb5
#
DISCID=5a0e061a
DTITLE=Elvis Presley  - FTD 33 - The Impossible Dream, 01-28-1971  
DYEAR=1900
DGENRE=
TTITLE0=Also Sprach Zarathustra
TTITLE1=That's All Right
TTITLE2=You Don't Have To Say You Love Me
TTITLE3=Love Me Tender
TTITLE4=Sweet Caroline
TTITLE5=You've Lost That Loving Feeling
TTITLE6=Polk Salad Annie
TTITLE7=Introductions 1
TTITLE8=Johnny B. Goode
TTITLE9=Introductions 2
TTITLE10=Something
TTITLE11=Release Me
TTITLE12=Love Me
TTITLE13=Blue Suede Shoes
TTITLE14=Hound Dog
TTITLE15=It's Now Or Never
TTITLE16=Suspicious Minds
TTITLE17=The Impossible Dream
TTITLE18=Mystery Train-Tiger Man
TTITLE19=There Goes My Everything
TTITLE20=Make The World Go Away
TTITLE21=Love Me
TTITLE22=Only Believe
TTITLE23=How Great Thou Art
TTITLE24=Snowbird
TTITLE25=Can't Help Falling In Love
EXTD=
EXTT0=
EXTT1=
EXTT2=
EXTT3=
EXTT4=
EXTT5=
EXTT6=
EXTT7=
EXTT8=
EXTT9=
EXTT10=
EXTT11=
EXTT12=
EXTT13=
EXTT14=
EXTT15=
EXTT16=
EXTT17=
EXTT18=
EXTT19=
EXTT20=
EXTT21=
EXTT22=
EXTT23=
EXTT24=
EXTT25=
PLAYORDER=
